# 3ds Max Wavefront OBJ Exporter v0.97b - (c)2007 guruware
# File Created: 14.10.2019 01:10:56

#
# object Cylinder001
#

v  0.0000 0.0000 -0.0000
v  0.9397 0.0000 -0.3420
v  1.0000 0.0000 -0.0000
v  0.7660 0.0000 -0.6428
v  0.5000 0.0000 -0.8660
v  0.1736 0.0000 -0.9848
v  -0.1736 0.0000 -0.9848
v  -0.5000 0.0000 -0.8660
v  -0.7660 0.0000 -0.6428
v  -0.9397 0.0000 -0.3420
v  -1.0000 0.0000 -0.0000
v  -0.9397 0.0000 0.3420
v  -0.7660 0.0000 0.6428
v  -0.5000 0.0000 0.8660
v  -0.1736 0.0000 0.9848
v  0.1736 0.0000 0.9848
v  0.5000 0.0000 0.8660
v  0.7660 0.0000 0.6428
v  0.9397 0.0000 0.3420
v  0.9397 0.4000 -0.3420
v  1.0000 0.4000 -0.0000
v  0.7660 0.4000 -0.6428
v  0.5000 0.4000 -0.8660
v  0.1736 0.4000 -0.9848
v  -0.1736 0.4000 -0.9848
v  -0.5000 0.4000 -0.8660
v  -0.7660 0.4000 -0.6428
v  -0.9397 0.4000 -0.3420
v  -1.0000 0.4000 -0.0000
v  -0.9397 0.4000 0.3420
v  -0.7660 0.4000 0.6428
v  -0.5000 0.4000 0.8660
v  -0.1736 0.4000 0.9848
v  0.1736 0.4000 0.9848
v  0.5000 0.4000 0.8660
v  0.7660 0.4000 0.6428
v  0.9397 0.4000 0.3420
v  0.9397 0.8000 -0.3420
v  1.0000 0.8000 -0.0000
v  0.7660 0.8000 -0.6428
v  0.5000 0.8000 -0.8660
v  0.1736 0.8000 -0.9848
v  -0.1736 0.8000 -0.9848
v  -0.5000 0.8000 -0.8660
v  -0.7660 0.8000 -0.6428
v  -0.9397 0.8000 -0.3420
v  -1.0000 0.8000 -0.0000
v  -0.9397 0.8000 0.3420
v  -0.7660 0.8000 0.6428
v  -0.5000 0.8000 0.8660
v  -0.1736 0.8000 0.9848
v  0.1736 0.8000 0.9848
v  0.5000 0.8000 0.8660
v  0.7660 0.8000 0.6428
v  0.9397 0.8000 0.3420
v  0.9397 1.2000 -0.3420
v  1.0000 1.2000 -0.0000
v  0.7660 1.2000 -0.6428
v  0.5000 1.2000 -0.8660
v  0.1736 1.2000 -0.9848
v  -0.1736 1.2000 -0.9848
v  -0.5000 1.2000 -0.8660
v  -0.7660 1.2000 -0.6428
v  -0.9397 1.2000 -0.3420
v  -1.0000 1.2000 -0.0000
v  -0.9397 1.2000 0.3420
v  -0.7660 1.2000 0.6428
v  -0.5000 1.2000 0.8660
v  -0.1736 1.2000 0.9848
v  0.1736 1.2000 0.9848
v  0.5000 1.2000 0.8660
v  0.7660 1.2000 0.6428
v  0.9397 1.2000 0.3420
v  0.9397 1.6000 -0.3420
v  1.0000 1.6000 -0.0000
v  0.7660 1.6000 -0.6428
v  0.5000 1.6000 -0.8660
v  0.1736 1.6000 -0.9848
v  -0.1736 1.6000 -0.9848
v  -0.5000 1.6000 -0.8660
v  -0.7660 1.6000 -0.6428
v  -0.9397 1.6000 -0.3420
v  -1.0000 1.6000 -0.0000
v  -0.9397 1.6000 0.3420
v  -0.7660 1.6000 0.6428
v  -0.5000 1.6000 0.8660
v  -0.1736 1.6000 0.9848
v  0.1736 1.6000 0.9848
v  0.5000 1.6000 0.8660
v  0.7660 1.6000 0.6428
v  0.9397 1.6000 0.3420
v  0.9397 2.0000 -0.3420
v  1.0000 2.0000 -0.0000
v  0.7660 2.0000 -0.6428
v  0.5000 2.0000 -0.8660
v  0.1736 2.0000 -0.9848
v  -0.1736 2.0000 -0.9848
v  -0.5000 2.0000 -0.8660
v  -0.7660 2.0000 -0.6428
v  -0.9397 2.0000 -0.3420
v  -1.0000 2.0000 -0.0000
v  -0.9397 2.0000 0.3420
v  -0.7660 2.0000 0.6428
v  -0.5000 2.0000 0.8660
v  -0.1736 2.0000 0.9848
v  0.1736 2.0000 0.9848
v  0.5000 2.0000 0.8660
v  0.7660 2.0000 0.6428
v  0.9397 2.0000 0.3420
v  0.0000 2.0000 -0.0000
# 110 vertices

vn 0.0000 -1.0000 -0.0000
vn 1.0000 0.0000 0.0000
vn 0.9397 0.0000 -0.3420
vn 0.7660 0.0000 -0.6428
vn 0.5000 0.0000 -0.8660
vn 0.1736 0.0000 -0.9848
vn -0.1736 0.0000 -0.9848
vn -0.5000 0.0000 -0.8660
vn -0.7660 0.0000 -0.6428
vn -0.9397 0.0000 -0.3420
vn -1.0000 0.0000 -0.0000
vn -0.9397 0.0000 0.3420
vn -0.7660 0.0000 0.6428
vn -0.5000 0.0000 0.8660
vn -0.1736 0.0000 0.9848
vn 0.1736 0.0000 0.9848
vn 0.5000 0.0000 0.8660
vn 0.7660 0.0000 0.6428
vn 0.9397 0.0000 0.3420
vn 0.0000 1.0000 -0.0000
# 20 vertex normals

vt 1.0000 0.9848 0.0000
vt 1.9397 0.6428 0.0000
vt 2.0000 0.9848 0.0000
vt 1.7660 0.3420 0.0000
vt 1.5000 0.1188 0.0000
vt 1.1736 0.0000 0.0000
vt 0.8264 0.0000 0.0000
vt 0.5000 0.1188 0.0000
vt 0.2340 0.3420 0.0000
vt 0.0603 0.6428 0.0000
vt 0.0000 0.9848 0.0000
vt 0.0603 1.3268 0.0000
vt 0.2340 1.6276 0.0000
vt 0.5000 1.8508 0.0000
vt 0.8264 1.9696 0.0000
vt 1.1736 1.9696 0.0000
vt 1.5000 1.8508 0.0000
vt 1.7660 1.6276 0.0000
vt 1.9397 1.3268 0.0000
vt 4.7124 0.0000 1.0000
vt 5.0615 0.4000 1.0000
vt 4.7124 0.4000 1.0000
vt 5.0615 0.0000 1.0000
vt 5.4105 0.4000 1.0000
vt 5.4105 0.0000 1.0000
vt 5.7596 0.4000 1.0000
vt 5.7596 0.0000 1.0000
vt 6.1087 0.4000 1.0000
vt 6.1087 0.0000 1.0000
vt -0.1745 0.0000 1.0000
vt 0.1745 0.4000 1.0000
vt -0.1745 0.4000 1.0000
vt 0.1745 0.0000 1.0000
vt 0.5236 0.4000 1.0000
vt 0.5236 0.0000 1.0000
vt 0.8727 0.4000 1.0000
vt 0.8727 0.0000 1.0000
vt 1.2217 0.4000 1.0000
vt 1.2217 0.0000 1.0000
vt 1.5708 0.4000 1.0000
vt 1.5708 0.0000 1.0000
vt 1.9199 0.4000 1.0000
vt 1.9199 0.0000 1.0000
vt 2.2689 0.4000 1.0000
vt 2.2689 0.0000 1.0000
vt 2.6180 0.4000 1.0000
vt 2.6180 0.0000 1.0000
vt 2.9671 0.4000 1.0000
vt 2.9671 0.0000 1.0000
vt 3.3161 0.4000 1.0000
vt 3.3161 0.0000 1.0000
vt 3.6652 0.4000 1.0000
vt 3.6652 0.0000 1.0000
vt 4.0143 0.4000 1.0000
vt 4.0143 0.0000 1.0000
vt 4.3633 0.4000 1.0000
vt 4.3633 0.0000 1.0000
vt 5.0615 0.8000 1.0000
vt 4.7124 0.8000 1.0000
vt 5.4105 0.8000 1.0000
vt 5.7596 0.8000 1.0000
vt 6.1087 0.8000 1.0000
vt 0.1745 0.8000 1.0000
vt -0.1745 0.8000 1.0000
vt 0.5236 0.8000 1.0000
vt 0.8727 0.8000 1.0000
vt 1.2217 0.8000 1.0000
vt 1.5708 0.8000 1.0000
vt 1.9199 0.8000 1.0000
vt 2.2689 0.8000 1.0000
vt 2.6180 0.8000 1.0000
vt 2.9671 0.8000 1.0000
vt 3.3161 0.8000 1.0000
vt 3.6652 0.8000 1.0000
vt 4.0143 0.8000 1.0000
vt 4.3633 0.8000 1.0000
vt 5.0615 1.2000 1.0000
vt 4.7124 1.2000 1.0000
vt 5.4105 1.2000 1.0000
vt 5.7596 1.2000 1.0000
vt 6.1087 1.2000 1.0000
vt 0.1745 1.2000 1.0000
vt -0.1745 1.2000 1.0000
vt 0.5236 1.2000 1.0000
vt 0.8727 1.2000 1.0000
vt 1.2217 1.2000 1.0000
vt 1.5708 1.2000 1.0000
vt 1.9199 1.2000 1.0000
vt 2.2689 1.2000 1.0000
vt 2.6180 1.2000 1.0000
vt 2.9671 1.2000 1.0000
vt 3.3161 1.2000 1.0000
vt 3.6652 1.2000 1.0000
vt 4.0143 1.2000 1.0000
vt 4.3633 1.2000 1.0000
vt 5.0615 1.6000 1.0000
vt 4.7124 1.6000 1.0000
vt 5.4105 1.6000 1.0000
vt 5.7596 1.6000 1.0000
vt 6.1087 1.6000 1.0000
vt 0.1745 1.6000 1.0000
vt -0.1745 1.6000 1.0000
vt 0.5236 1.6000 1.0000
vt 0.8727 1.6000 1.0000
vt 1.2217 1.6000 1.0000
vt 1.5708 1.6000 1.0000
vt 1.9199 1.6000 1.0000
vt 2.2689 1.6000 1.0000
vt 2.6180 1.6000 1.0000
vt 2.9671 1.6000 1.0000
vt 3.3161 1.6000 1.0000
vt 3.6652 1.6000 1.0000
vt 4.0143 1.6000 1.0000
vt 4.3633 1.6000 1.0000
vt 5.0615 2.0000 1.0000
vt 4.7124 2.0000 1.0000
vt 5.4105 2.0000 1.0000
vt 5.7596 2.0000 1.0000
vt 6.1087 2.0000 1.0000
vt 0.1745 2.0000 1.0000
vt -0.1745 2.0000 1.0000
vt 0.5236 2.0000 1.0000
vt 0.8727 2.0000 1.0000
vt 1.2217 2.0000 1.0000
vt 1.5708 2.0000 1.0000
vt 1.9199 2.0000 1.0000
vt 2.2689 2.0000 1.0000
vt 2.6180 2.0000 1.0000
vt 2.9671 2.0000 1.0000
vt 3.3161 2.0000 1.0000
vt 3.6652 2.0000 1.0000
vt 4.0143 2.0000 1.0000
vt 4.3633 2.0000 1.0000
# 133 texture coords

o Cylinder001
g Cylinder001
s 1
f 1/1/1 2/2/1 3/3/1 
f 1/1/1 4/4/1 2/2/1 
f 1/1/1 5/5/1 4/4/1 
f 1/1/1 6/6/1 5/5/1 
f 1/1/1 7/7/1 6/6/1 
f 1/1/1 8/8/1 7/7/1 
f 1/1/1 9/9/1 8/8/1 
f 1/1/1 10/10/1 9/9/1 
f 1/1/1 11/11/1 10/10/1 
f 1/1/1 12/12/1 11/11/1 
f 1/1/1 13/13/1 12/12/1 
f 1/1/1 14/14/1 13/13/1 
f 1/1/1 15/15/1 14/14/1 
f 1/1/1 16/16/1 15/15/1 
f 1/1/1 17/17/1 16/16/1 
f 1/1/1 18/18/1 17/17/1 
f 1/1/1 19/19/1 18/18/1 
f 1/1/1 3/3/1 19/19/1 
s 8
f 3/20/2 20/21/3 21/22/2 
f 3/20/2 2/23/3 20/21/3 
f 2/23/3 22/24/4 20/21/3 
f 2/23/3 4/25/4 22/24/4 
f 4/25/4 23/26/5 22/24/4 
f 4/25/4 5/27/5 23/26/5 
f 5/27/5 24/28/6 23/26/5 
f 5/27/5 6/29/6 24/28/6 
f 6/30/6 25/31/7 24/32/6 
f 6/30/6 7/33/7 25/31/7 
f 7/33/7 26/34/8 25/31/7 
f 7/33/7 8/35/8 26/34/8 
f 8/35/8 27/36/9 26/34/8 
f 8/35/8 9/37/9 27/36/9 
f 9/37/9 28/38/10 27/36/9 
f 9/37/9 10/39/10 28/38/10 
f 10/39/10 29/40/11 28/38/10 
f 10/39/10 11/41/11 29/40/11 
f 11/41/11 30/42/12 29/40/11 
f 11/41/11 12/43/12 30/42/12 
f 12/43/12 31/44/13 30/42/12 
f 12/43/12 13/45/13 31/44/13 
f 13/45/13 32/46/14 31/44/13 
f 13/45/13 14/47/14 32/46/14 
f 14/47/14 33/48/15 32/46/14 
f 14/47/14 15/49/15 33/48/15 
f 15/49/15 34/50/16 33/48/15 
f 15/49/15 16/51/16 34/50/16 
f 16/51/16 35/52/17 34/50/16 
f 16/51/16 17/53/17 35/52/17 
f 17/53/17 36/54/18 35/52/17 
f 17/53/17 18/55/18 36/54/18 
f 18/55/18 37/56/19 36/54/18 
f 18/55/18 19/57/19 37/56/19 
f 19/57/19 21/22/2 37/56/19 
f 19/57/19 3/20/2 21/22/2 
f 21/22/2 38/58/3 39/59/2 
f 21/22/2 20/21/3 38/58/3 
f 20/21/3 40/60/4 38/58/3 
f 20/21/3 22/24/4 40/60/4 
f 22/24/4 41/61/5 40/60/4 
f 22/24/4 23/26/5 41/61/5 
f 23/26/5 42/62/6 41/61/5 
f 23/26/5 24/28/6 42/62/6 
f 24/32/6 43/63/7 42/64/6 
f 24/32/6 25/31/7 43/63/7 
f 25/31/7 44/65/8 43/63/7 
f 25/31/7 26/34/8 44/65/8 
f 26/34/8 45/66/9 44/65/8 
f 26/34/8 27/36/9 45/66/9 
f 27/36/9 46/67/10 45/66/9 
f 27/36/9 28/38/10 46/67/10 
f 28/38/10 47/68/11 46/67/10 
f 28/38/10 29/40/11 47/68/11 
f 29/40/11 48/69/12 47/68/11 
f 29/40/11 30/42/12 48/69/12 
f 30/42/12 49/70/13 48/69/12 
f 30/42/12 31/44/13 49/70/13 
f 31/44/13 50/71/14 49/70/13 
f 31/44/13 32/46/14 50/71/14 
f 32/46/14 51/72/15 50/71/14 
f 32/46/14 33/48/15 51/72/15 
f 33/48/15 52/73/16 51/72/15 
f 33/48/15 34/50/16 52/73/16 
f 34/50/16 53/74/17 52/73/16 
f 34/50/16 35/52/17 53/74/17 
f 35/52/17 54/75/18 53/74/17 
f 35/52/17 36/54/18 54/75/18 
f 36/54/18 55/76/19 54/75/18 
f 36/54/18 37/56/19 55/76/19 
f 37/56/19 39/59/2 55/76/19 
f 37/56/19 21/22/2 39/59/2 
f 39/59/2 56/77/3 57/78/2 
f 39/59/2 38/58/3 56/77/3 
f 38/58/3 58/79/4 56/77/3 
f 38/58/3 40/60/4 58/79/4 
f 40/60/4 59/80/5 58/79/4 
f 40/60/4 41/61/5 59/80/5 
f 41/61/5 60/81/6 59/80/5 
f 41/61/5 42/62/6 60/81/6 
f 42/64/6 61/82/7 60/83/6 
f 42/64/6 43/63/7 61/82/7 
f 43/63/7 62/84/8 61/82/7 
f 43/63/7 44/65/8 62/84/8 
f 44/65/8 63/85/9 62/84/8 
f 44/65/8 45/66/9 63/85/9 
f 45/66/9 64/86/10 63/85/9 
f 45/66/9 46/67/10 64/86/10 
f 46/67/10 65/87/11 64/86/10 
f 46/67/10 47/68/11 65/87/11 
f 47/68/11 66/88/12 65/87/11 
f 47/68/11 48/69/12 66/88/12 
f 48/69/12 67/89/13 66/88/12 
f 48/69/12 49/70/13 67/89/13 
f 49/70/13 68/90/14 67/89/13 
f 49/70/13 50/71/14 68/90/14 
f 50/71/14 69/91/15 68/90/14 
f 50/71/14 51/72/15 69/91/15 
f 51/72/15 70/92/16 69/91/15 
f 51/72/15 52/73/16 70/92/16 
f 52/73/16 71/93/17 70/92/16 
f 52/73/16 53/74/17 71/93/17 
f 53/74/17 72/94/18 71/93/17 
f 53/74/17 54/75/18 72/94/18 
f 54/75/18 73/95/19 72/94/18 
f 54/75/18 55/76/19 73/95/19 
f 55/76/19 57/78/2 73/95/19 
f 55/76/19 39/59/2 57/78/2 
f 57/78/2 74/96/3 75/97/2 
f 57/78/2 56/77/3 74/96/3 
f 56/77/3 76/98/4 74/96/3 
f 56/77/3 58/79/4 76/98/4 
f 58/79/4 77/99/5 76/98/4 
f 58/79/4 59/80/5 77/99/5 
f 59/80/5 78/100/6 77/99/5 
f 59/80/5 60/81/6 78/100/6 
f 60/83/6 79/101/7 78/102/6 
f 60/83/6 61/82/7 79/101/7 
f 61/82/7 80/103/8 79/101/7 
f 61/82/7 62/84/8 80/103/8 
f 62/84/8 81/104/9 80/103/8 
f 62/84/8 63/85/9 81/104/9 
f 63/85/9 82/105/10 81/104/9 
f 63/85/9 64/86/10 82/105/10 
f 64/86/10 83/106/11 82/105/10 
f 64/86/10 65/87/11 83/106/11 
f 65/87/11 84/107/12 83/106/11 
f 65/87/11 66/88/12 84/107/12 
f 66/88/12 85/108/13 84/107/12 
f 66/88/12 67/89/13 85/108/13 
f 67/89/13 86/109/14 85/108/13 
f 67/89/13 68/90/14 86/109/14 
f 68/90/14 87/110/15 86/109/14 
f 68/90/14 69/91/15 87/110/15 
f 69/91/15 88/111/16 87/110/15 
f 69/91/15 70/92/16 88/111/16 
f 70/92/16 89/112/17 88/111/16 
f 70/92/16 71/93/17 89/112/17 
f 71/93/17 90/113/18 89/112/17 
f 71/93/17 72/94/18 90/113/18 
f 72/94/18 91/114/19 90/113/18 
f 72/94/18 73/95/19 91/114/19 
f 73/95/19 75/97/2 91/114/19 
f 73/95/19 57/78/2 75/97/2 
f 75/97/2 92/115/3 93/116/2 
f 75/97/2 74/96/3 92/115/3 
f 74/96/3 94/117/4 92/115/3 
f 74/96/3 76/98/4 94/117/4 
f 76/98/4 95/118/5 94/117/4 
f 76/98/4 77/99/5 95/118/5 
f 77/99/5 96/119/6 95/118/5 
f 77/99/5 78/100/6 96/119/6 
f 78/102/6 97/120/7 96/121/6 
f 78/102/6 79/101/7 97/120/7 
f 79/101/7 98/122/8 97/120/7 
f 79/101/7 80/103/8 98/122/8 
f 80/103/8 99/123/9 98/122/8 
f 80/103/8 81/104/9 99/123/9 
f 81/104/9 100/124/10 99/123/9 
f 81/104/9 82/105/10 100/124/10 
f 82/105/10 101/125/11 100/124/10 
f 82/105/10 83/106/11 101/125/11 
f 83/106/11 102/126/12 101/125/11 
f 83/106/11 84/107/12 102/126/12 
f 84/107/12 103/127/13 102/126/12 
f 84/107/12 85/108/13 103/127/13 
f 85/108/13 104/128/14 103/127/13 
f 85/108/13 86/109/14 104/128/14 
f 86/109/14 105/129/15 104/128/14 
f 86/109/14 87/110/15 105/129/15 
f 87/110/15 106/130/16 105/129/15 
f 87/110/15 88/111/16 106/130/16 
f 88/111/16 107/131/17 106/130/16 
f 88/111/16 89/112/17 107/131/17 
f 89/112/17 108/132/18 107/131/17 
f 89/112/17 90/113/18 108/132/18 
f 90/113/18 109/133/19 108/132/18 
f 90/113/18 91/114/19 109/133/19 
f 91/114/19 93/116/2 109/133/19 
f 91/114/19 75/97/2 93/116/2 
s 1
f 110/1/20 93/3/20 92/19/20 
f 110/1/20 92/19/20 94/18/20 
f 110/1/20 94/18/20 95/17/20 
f 110/1/20 95/17/20 96/16/20 
f 110/1/20 96/16/20 97/15/20 
f 110/1/20 97/15/20 98/14/20 
f 110/1/20 98/14/20 99/13/20 
f 110/1/20 99/13/20 100/12/20 
f 110/1/20 100/12/20 101/11/20 
f 110/1/20 101/11/20 102/10/20 
f 110/1/20 102/10/20 103/9/20 
f 110/1/20 103/9/20 104/8/20 
f 110/1/20 104/8/20 105/7/20 
f 110/1/20 105/7/20 106/6/20 
f 110/1/20 106/6/20 107/5/20 
f 110/1/20 107/5/20 108/4/20 
f 110/1/20 108/4/20 109/2/20 
f 110/1/20 109/2/20 93/3/20 
# 216 faces

