# 3ds Max Wavefront OBJ Exporter v0.97b - (c)2007 guruware
# File Created: 06.07.2017 20:51:50

#
# object Box001
#

v  -0.438139 -0.006767 0.008509
v  -0.438140 1.978305 0.008509
v  -0.518088 1.978305 0.008509
v  -0.518087 -0.006767 0.008509
v  -0.400000 -0.006767 -0.040215
v  -0.400000 1.978305 -0.040215
v  -0.400000 1.978305 0.000000
v  -0.400000 -0.006767 0.000000
v  -0.518088 1.978305 -0.040215
v  -0.518087 -0.006767 -0.040215
v  0.429182 1.978305 0.008509
v  0.429182 -0.006767 0.008509
v  0.506435 -0.006767 0.008509
v  0.506434 1.978305 0.008509
v  0.391042 1.978305 -0.040215
v  0.391043 -0.006767 -0.040215
v  0.391043 -0.006767 0.000000
v  0.391042 1.978305 0.000000
v  0.506435 -0.006767 -0.040215
v  0.506434 1.978305 -0.040215
v  -0.518087 2.102620 0.008552
v  -0.518088 1.978305 0.008548
v  0.506434 1.978305 0.008548
v  0.506435 2.102620 0.008552
v  -0.518087 2.102620 -0.040215
v  0.506435 2.102620 -0.040215
v  -0.438139 -0.006767 -0.127319
v  -0.518087 -0.006767 -0.127319
v  -0.518088 1.978305 -0.127319
v  -0.438140 1.978305 -0.127319
v  -0.400000 -0.006767 -0.078595
v  -0.400000 -0.006767 -0.111615
v  -0.400000 1.978305 -0.111615
v  -0.400000 1.978305 -0.078595
v  -0.518088 1.978305 -0.078595
v  -0.518087 -0.006767 -0.078595
v  0.429182 1.978305 -0.127319
v  0.506434 1.978305 -0.127319
v  0.506435 -0.006767 -0.127319
v  0.429182 -0.006767 -0.127319
v  0.391042 1.978305 -0.078595
v  0.391042 1.978305 -0.111615
v  0.391043 -0.006767 -0.111615
v  0.391043 -0.006767 -0.078595
v  0.506435 -0.006767 -0.078595
v  0.506434 1.978305 -0.078595
v  -0.518087 2.102620 -0.127362
v  0.506435 2.102620 -0.127362
v  0.506434 1.978305 -0.127357
v  -0.518088 1.978305 -0.127357
v  -0.518087 2.102620 -0.078595
v  0.506435 2.102620 -0.078595
v  -0.392427 1.978305 -0.040215
v  -0.392427 -0.006767 -0.040215
v  -0.392427 -0.006767 -0.078595
v  -0.392427 1.978305 -0.078595
v  0.383470 -0.006767 -0.040215
v  0.383469 1.978305 -0.040215
v  0.383469 1.978305 -0.078595
v  0.383470 -0.006767 -0.078595
v  -0.518087 1.967985 -0.078595
v  0.506435 1.967985 -0.078595
v  0.506435 1.967985 -0.040215
v  -0.518087 1.967985 -0.040215
# 64 vertices

vn 0.109533 0.000000 0.993983
vn 0.000000 0.000000 1.000000
vn 1.000000 0.000000 -0.000000
vn -1.000000 0.000000 -0.000000
vn 0.217749 0.000000 0.976005
vn -0.109533 0.000000 0.993983
vn -0.217749 0.000000 0.976005
vn 0.000000 -0.000035 1.000000
vn -1.000000 0.000004 -0.000000
vn 0.000000 -1.000000 -0.000000
vn 1.000000 -0.000004 -0.000000
vn 0.194057 0.000000 -0.980990
vn 0.000000 0.000000 -1.000000
vn 0.380736 0.000000 -0.924684
vn 0.380735 0.000000 -0.924684
vn -0.194057 0.000000 -0.980990
vn -0.380735 0.000000 -0.924684
vn 0.000000 -0.000035 -1.000000
vn 0.000000 1.000000 -0.000000
vn 1.000000 0.000052 -0.000000
vn -1.000000 -0.000054 -0.000000
# 21 vertex normals

vt 0.022566 0.379874 0.000000
vt 0.982566 0.379874 0.000000
vt 0.982566 0.416169 0.000000
vt 0.022566 0.416169 0.000000
vt 0.921057 0.869549 0.000000
vt 0.081057 0.869549 0.000000
vt 0.081057 0.855616 0.000000
vt 0.921057 0.855616 0.000000
vt 0.979842 0.280369 0.000000
vt 0.019842 0.280369 0.000000
vt 0.019842 0.256872 0.000000
vt 0.979842 0.256872 0.000000
vt 0.022566 0.361482 0.000000
vt 0.982566 0.361482 0.000000
vt 0.973577 0.595554 0.000000
vt 0.013577 0.595554 0.000000
vt 0.013577 0.559260 0.000000
vt 0.973577 0.559260 0.000000
vt 0.921057 0.982303 0.000000
vt 0.081057 0.982303 0.000000
vt 0.081057 0.968370 0.000000
vt 0.921057 0.968370 0.000000
vt 0.975314 0.312389 0.000000
vt 0.015314 0.312389 0.000000
vt 0.015314 0.288893 0.000000
vt 0.975314 0.288893 0.000000
vt 0.973577 0.613946 0.000000
vt 0.013577 0.613946 0.000000
vt 0.880658 0.118387 0.000000
vt 0.880658 0.211112 0.000000
vt 0.112850 0.211112 0.000000
vt 0.112850 0.118386 0.000000
vt 0.916243 0.211113 0.000000
vt 0.916246 0.118388 0.000000
vt 0.969937 0.718175 0.000000
vt 0.009937 0.718175 0.000000
vt 0.009937 0.673682 0.000000
vt 0.969937 0.673682 0.000000
vt 0.077261 0.118388 0.000000
vt 0.077264 0.211113 0.000000
vt 0.983648 0.510440 0.000000
vt 0.983648 0.546734 0.000000
vt 0.023648 0.546734 0.000000
vt 0.023648 0.510440 0.000000
vt 0.921057 0.889137 0.000000
vt 0.921057 0.903070 0.000000
vt 0.081057 0.903070 0.000000
vt 0.081057 0.889137 0.000000
vt 0.970787 0.216124 0.000000
vt 0.970787 0.239620 0.000000
vt 0.010787 0.239620 0.000000
vt 0.010787 0.216124 0.000000
vt 0.983648 0.492047 0.000000
vt 0.023648 0.492047 0.000000
vt 0.023648 0.462186 0.000000
vt 0.023648 0.425892 0.000000
vt 0.983648 0.425892 0.000000
vt 0.983648 0.462186 0.000000
vt 0.924104 0.928753 0.000000
vt 0.924104 0.942686 0.000000
vt 0.084105 0.942686 0.000000
vt 0.084104 0.928753 0.000000
vt 0.972532 0.322658 0.000000
vt 0.972532 0.346155 0.000000
vt 0.012532 0.346155 0.000000
vt 0.012532 0.322658 0.000000
vt 0.023648 0.480579 0.000000
vt 0.983648 0.480578 0.000000
vt 0.878432 0.108734 0.000000
vt 0.110624 0.108734 0.000000
vt 0.110624 0.016008 0.000000
vt 0.878432 0.016008 0.000000
vt 0.914017 0.016007 0.000000
vt 0.914020 0.108733 0.000000
vt 0.969937 0.624261 0.000000
vt 0.969937 0.668754 0.000000
vt 0.009937 0.668754 0.000000
vt 0.009937 0.624261 0.000000
vt 0.075035 0.108733 0.000000
vt 0.075038 0.016007 0.000000
vt 0.081171 0.829652 0.000000
vt 0.921171 0.829652 0.000000
vt 0.921171 0.845846 0.000000
vt 0.081171 0.845846 0.000000
vt 0.078124 0.805294 0.000000
vt 0.918124 0.805294 0.000000
vt 0.918124 0.821489 0.000000
vt 0.078124 0.821489 0.000000
vt 0.921057 0.879941 0.000000
vt 0.081057 0.879941 0.000000
vt 0.081057 0.876746 0.000000
vt 0.921057 0.876746 0.000000
vt 0.034392 -0.003076 0.000000
vt 0.921057 0.913463 0.000000
vt 0.081057 0.913463 0.000000
vt 0.081057 0.910267 0.000000
vt 0.921057 0.910267 0.000000
vt 0.004110 0.341482 0.000000
vt 0.081057 0.987972 0.000000
vt 0.921057 0.987972 0.000000
vt 0.921057 0.991168 0.000000
vt 0.081057 0.991168 0.000000
vt 0.084104 0.949884 0.000000
vt 0.924104 0.949883 0.000000
vt 0.924104 0.953079 0.000000
vt 0.084104 0.953079 0.000000
vt 0.974464 0.763031 0.000000
vt 0.014465 0.763031 0.000000
vt 0.014465 0.728013 0.000000
vt 0.974464 0.728013 0.000000
vt 0.983520 0.793781 0.000000
vt 0.023520 0.793781 0.000000
vt 0.023520 0.786871 0.000000
vt 0.983520 0.786871 0.000000
vt 0.018992 0.773288 0.000000
vt 0.978992 0.773289 0.000000
vt 0.978992 0.780199 0.000000
vt 0.018992 0.780198 0.000000
# 118 texture coords

g Box001
f 1/1/1 2/2/1 3/3/2 
f 3/3/2 4/4/2 1/1/1 
f 5/5/3 6/6/3 7/7/3 
f 7/7/3 8/8/3 5/5/3 
f 9/9/4 10/10/4 4/11/4 
f 4/11/4 3/12/4 9/9/4 
f 8/13/5 7/14/5 2/2/1 
f 2/2/1 1/1/1 8/13/5 
f 11/15/6 12/16/6 13/17/2 
f 13/17/2 14/18/2 11/15/6 
f 15/19/4 16/20/4 17/21/4 
f 17/21/4 18/22/4 15/19/4 
f 19/23/3 20/24/3 14/25/3 
f 14/25/3 13/26/3 19/23/3 
f 18/27/7 17/28/7 12/16/6 
f 12/16/6 11/15/6 18/27/7 
f 21/29/8 22/30/8 23/31/8 
f 23/31/8 24/32/8 21/29/8 
f 9/33/9 22/30/9 21/29/9 
f 21/29/9 25/34/9 9/33/9 
f 9/35/10 20/36/10 23/37/10 
f 23/37/10 22/38/10 9/35/10 
f 26/39/11 24/32/11 23/31/11 
f 23/31/11 20/40/11 26/39/11 
f 27/41/12 28/42/13 29/43/13 
f 29/43/13 30/44/12 27/41/12 
f 31/45/3 32/46/3 33/47/3 
f 33/47/3 34/48/3 31/45/3 
f 35/49/4 29/50/4 28/51/4 
f 28/51/4 36/52/4 35/49/4 
f 32/53/14 27/41/12 30/44/12 
f 30/44/12 33/54/15 32/53/14 
f 37/55/16 38/56/13 39/57/13 
f 39/57/13 40/58/16 37/55/16 
f 41/59/4 42/60/4 43/61/4 
f 43/61/4 44/62/4 41/59/4 
f 45/63/3 39/64/3 38/65/3 
f 38/65/3 46/66/3 45/63/3 
f 42/67/17 37/55/16 40/58/16 
f 40/58/16 43/68/17 42/67/17 
f 47/69/18 48/70/18 49/71/18 
f 49/71/18 50/72/18 47/69/18 
f 35/73/9 51/74/9 47/69/9 
f 47/69/9 50/72/9 35/73/9 
f 35/75/10 50/76/10 49/77/10 
f 49/77/10 46/78/10 35/75/10 
f 52/79/11 46/80/11 49/71/11 
f 49/71/11 48/70/11 52/79/11 
f 53/81/3 54/82/3 55/83/3 
f 55/83/3 56/84/3 53/81/3 
f 57/85/4 58/86/4 59/87/4 
f 59/87/4 60/88/4 57/85/4 
f 6/89/2 5/90/2 54/91/2 
f 54/91/2 53/92/2 6/89/2 
f 5/93/10 31/93/10 55/93/10 
f 55/93/10 54/93/10 5/93/10 
f 31/94/13 34/95/13 56/96/13 
f 56/96/13 55/97/13 31/94/13 
f 34/98/19 6/98/19 53/98/19 
f 53/98/19 56/98/19 34/98/19 
f 16/99/2 15/100/2 58/101/2 
f 58/101/2 57/102/2 16/99/2 
f 15/93/19 41/93/19 59/93/19 
f 59/93/19 58/93/19 15/93/19 
f 41/103/13 44/104/13 60/105/13 
f 60/105/13 59/106/13 41/103/13 
f 44/98/10 16/98/10 57/98/10 
f 57/98/10 60/98/10 44/98/10 
f 61/107/10 62/108/10 63/109/10 
f 63/109/10 64/110/10 61/107/10 
f 35/111/13 46/112/13 62/113/13 
f 62/113/13 61/114/13 35/111/13 
f 46/98/20 20/98/20 63/98/20 
f 63/98/20 62/98/20 46/98/20 
f 20/115/2 9/116/2 64/117/2 
f 64/117/2 63/118/2 20/115/2 
f 9/93/21 35/93/21 61/93/21 
f 61/93/21 64/93/21 9/93/21 
# 78 faces

