# 3ds Max Wavefront OBJ Exporter v0.97b - (c)2007 guruware
# File Created: 15.11.2019 06:47:13

#
# object Frame
#

v  0.5176 2.1159 -0.1000
v  0.5172 0.0000 -0.1000
v  0.5172 0.0000 -0.1149
v  0.5176 2.1159 -0.1149
v  0.4000 1.9990 -0.1000
v  0.4000 0.0000 -0.1000
v  0.4000 1.9990 -0.1035
v  0.4007 0.0000 -0.1035
v  0.4132 2.0121 -0.1095
v  0.4137 0.0000 -0.1095
v  0.4212 2.0201 -0.1080
v  0.4217 0.0000 -0.1080
v  0.4301 2.0290 -0.1083
v  0.4306 0.0000 -0.1083
v  0.4401 0.0000 -0.1097
v  0.4398 2.0386 -0.1097
v  0.4500 2.0487 -0.1117
v  0.4502 0.0000 -0.1117
v  0.4605 2.0592 -0.1136
v  0.4607 0.0000 -0.1136
v  0.4712 0.0000 -0.1147
v  0.4712 2.0698 -0.1147
v  0.4818 2.0803 -0.1144
v  0.4817 0.0000 -0.1144
v  0.4921 2.0906 -0.1120
v  0.4920 0.0000 -0.1120
v  0.4984 2.0968 -0.1149
v  0.4982 0.0000 -0.1149
v  -0.5173 2.1160 -0.1149
v  -0.5173 2.1160 -0.1000
v  -0.4000 1.9987 -0.1035
v  -0.4132 2.0119 -0.1095
v  -0.4212 2.0199 -0.1080
v  -0.4301 2.0288 -0.1083
v  -0.4397 2.0384 -0.1097
v  -0.4499 2.0486 -0.1117
v  -0.4604 2.0591 -0.1136
v  -0.4710 2.0697 -0.1147
v  -0.4816 2.0803 -0.1144
v  -0.4919 2.0906 -0.1120
v  -0.4981 2.0968 -0.1149
v  -0.5173 0.0001 -0.1149
v  -0.5173 0.0001 -0.1000
v  -0.4000 0.0001 -0.1000
v  -0.4000 1.9987 -0.1000
v  -0.4000 0.0001 -0.1035
v  -0.4132 0.0001 -0.1095
v  -0.4212 0.0001 -0.1080
v  -0.4301 0.0001 -0.1083
v  -0.4397 0.0001 -0.1097
v  -0.4499 0.0001 -0.1117
v  -0.4604 0.0001 -0.1136
v  -0.4710 0.0001 -0.1147
v  -0.4816 0.0001 -0.1144
v  -0.4919 0.0001 -0.1120
v  -0.4981 0.0001 -0.1149
v  0.4000 1.9987 -0.1000
v  0.4000 1.9987 -0.0000
v  -0.4000 1.9990 -0.0000
v  -0.4000 0.0002 0.0000
v  -0.4000 -0.0000 -0.1000
v  0.4000 0.0000 -0.0000
v  -0.5176 2.1159 -0.0000
v  -0.5172 0.0000 -0.0000
v  -0.5172 0.0000 0.0149
v  -0.5176 2.1159 0.0149
v  -0.4000 1.9990 0.0000
v  -0.4000 0.0000 0.0000
v  -0.4000 1.9990 0.0035
v  -0.4007 0.0000 0.0035
v  -0.4132 2.0121 0.0095
v  -0.4137 0.0000 0.0095
v  -0.4212 2.0201 0.0080
v  -0.4217 0.0000 0.0080
v  -0.4301 2.0290 0.0083
v  -0.4306 0.0000 0.0083
v  -0.4401 0.0000 0.0097
v  -0.4398 2.0386 0.0097
v  -0.4500 2.0487 0.0117
v  -0.4502 0.0000 0.0117
v  -0.4605 2.0592 0.0136
v  -0.4607 0.0000 0.0136
v  -0.4712 0.0000 0.0147
v  -0.4712 2.0698 0.0147
v  -0.4818 2.0803 0.0144
v  -0.4817 0.0000 0.0144
v  -0.4921 2.0906 0.0120
v  -0.4920 0.0000 0.0120
v  -0.4984 2.0968 0.0149
v  -0.4982 0.0000 0.0149
v  0.5173 2.1160 0.0149
v  0.5173 2.1160 0.0000
v  0.4000 1.9987 0.0035
v  0.4132 2.0119 0.0095
v  0.4212 2.0199 0.0080
v  0.4301 2.0288 0.0083
v  0.4397 2.0384 0.0097
v  0.4499 2.0486 0.0117
v  0.4604 2.0591 0.0136
v  0.4710 2.0697 0.0147
v  0.4816 2.0803 0.0144
v  0.4919 2.0906 0.0121
v  0.4981 2.0968 0.0149
v  0.5173 0.0001 0.0149
v  0.5173 0.0001 -0.0000
v  0.4000 0.0001 -0.0000
v  0.4000 0.0001 0.0035
v  0.4132 0.0001 0.0095
v  0.4212 0.0001 0.0080
v  0.4301 0.0001 0.0083
v  0.4397 0.0001 0.0097
v  0.4499 0.0001 0.0117
v  0.4604 0.0001 0.0136
v  0.4710 0.0001 0.0147
v  0.4816 0.0001 0.0144
v  0.4919 0.0001 0.0120
v  0.4981 0.0001 0.0149
v  -0.4010 1.9994 -0.0338
v  -0.3944 1.9924 -0.0338
v  0.3946 1.9929 -0.0338
v  0.4011 1.9994 -0.0338
v  -0.3944 1.9924 -0.0652
v  0.3946 1.9929 -0.0652
v  -0.4010 1.9994 -0.0652
v  0.4011 1.9994 -0.0652
v  -0.4010 0.0000 -0.0338
v  -0.3944 0.0000 -0.0338
v  -0.3944 0.0000 -0.0652
v  -0.4010 0.0000 -0.0652
v  0.3946 0.0000 -0.0338
v  0.4011 0.0000 -0.0338
v  0.4011 0.0000 -0.0652
v  0.3946 0.0000 -0.0652
# 133 vertices

vn 1.0000 -0.0002 -0.0000
vn -0.0000 0.0000 1.0000
vn -0.0000 -0.0000 1.0000
vn -1.0000 -0.0000 -0.0002
vn -0.9949 -0.0003 -0.1011
vn -0.9949 -0.0003 -0.1009
vn -1.0000 -0.0000 -0.0000
vn -0.6460 -0.0002 -0.7633
vn -0.6494 -0.0002 -0.7605
vn -0.6493 -0.0002 -0.7605
vn -0.6460 -0.0002 -0.7634
vn 0.0195 0.0192 -0.9996
vn 0.1376 0.0000 -0.9905
vn 0.3336 0.0001 -0.9427
vn 0.1701 0.1713 -0.9704
vn -0.1120 -0.1128 -0.9873
vn -0.1708 -0.0000 -0.9853
vn -0.3110 -0.0000 -0.9504
vn -0.1671 -0.1681 -0.9715
vn -0.1658 -0.1666 -0.9720
vn -0.3320 -0.0000 -0.9433
vn -0.1130 -0.1135 -0.9871
vn -0.2557 -0.0000 -0.9668
vn -0.0700 -0.0000 -0.9975
vn -0.0044 -0.0042 -1.0000
vn 0.1582 0.1591 -0.9745
vn 0.2272 -0.0000 -0.9738
vn 0.2041 0.2039 -0.9575
vn 0.3941 -0.0000 -0.9191
vn -0.6437 0.0001 -0.7653
vn -0.6469 0.0000 -0.7626
vn 0.0000 -0.0000 -1.0000
vn 0.0000 0.0000 -1.0000
vn 0.0000 1.0000 -0.0000
vn 0.0002 -0.6481 -0.7616
vn 0.0002 -0.6469 -0.7626
vn -0.1707 0.1706 -0.9704
vn -0.0194 0.0194 -0.9996
vn 0.1124 -0.1124 -0.9873
vn 0.1677 -0.1676 -0.9715
vn 0.1662 -0.1661 -0.9720
vn 0.1133 -0.1132 -0.9871
vn 0.0043 -0.0043 -1.0000
vn -0.1587 0.1587 -0.9745
vn -0.2040 0.2040 -0.9575
vn 0.0000 -0.6445 -0.7646
vn 0.0000 -0.6456 -0.7637
vn -1.0000 0.0000 -0.0000
vn 0.0000 0.0000 1.0000
vn 1.0000 -0.0000 -0.0000
vn 0.6470 -0.0000 -0.7624
vn -0.1369 0.0000 -0.9906
vn -0.3319 0.0000 -0.9433
vn 0.1698 0.0000 -0.9855
vn 0.3093 -0.0000 -0.9510
vn 0.3302 -0.0000 -0.9439
vn 0.2542 -0.0000 -0.9671
vn 0.0696 0.0000 -0.9976
vn -0.2259 -0.0000 -0.9741
vn -0.3920 -0.0000 -0.9200
vn 0.6445 -0.0000 -0.7646
vn 0.0000 -1.0000 -0.0000
vn -0.0000 -1.0000 -0.0000
vn 0.0003 -0.9992 -0.0406
vn -0.0003 -1.0000 0.0014
vn 1.0000 0.0000 0.0000
vn -1.0000 -0.0000 0.0000
vn -1.0000 0.0000 0.0000
vn -1.0000 -0.0002 0.0000
vn -1.0000 -0.0002 -0.0000
vn 1.0000 -0.0000 0.0002
vn 0.9949 -0.0003 0.1011
vn 0.9949 -0.0003 0.1009
vn 0.6460 -0.0002 0.7633
vn 0.6494 -0.0002 0.7605
vn 0.6493 -0.0002 0.7605
vn 0.6460 -0.0002 0.7634
vn -0.0195 0.0192 0.9996
vn -0.1376 0.0000 0.9905
vn -0.3336 0.0001 0.9427
vn -0.1701 0.1713 0.9704
vn 0.1120 -0.1128 0.9873
vn 0.1708 -0.0000 0.9853
vn 0.3110 -0.0000 0.9504
vn 0.1671 -0.1681 0.9715
vn 0.1658 -0.1666 0.9720
vn 0.3320 -0.0000 0.9433
vn 0.1130 -0.1135 0.9871
vn 0.2557 -0.0000 0.9668
vn 0.0700 -0.0000 0.9975
vn 0.0044 -0.0042 1.0000
vn -0.1582 0.1591 0.9745
vn -0.2272 -0.0000 0.9739
vn -0.2041 0.2039 0.9575
vn -0.3941 -0.0000 0.9191
vn 0.6437 0.0001 0.7653
vn 0.6469 0.0000 0.7626
vn 0.0000 -0.0000 1.0000
vn -0.0000 1.0000 0.0000
vn -0.0000 1.0000 -0.0000
vn -0.0003 -1.0000 -0.0000
vn -0.0002 -0.6481 0.7616
vn -0.0002 -0.6469 0.7626
vn 0.1707 0.1706 0.9704
vn 0.0194 0.0194 0.9996
vn -0.1124 -0.1124 0.9873
vn -0.1677 -0.1676 0.9715
vn -0.1662 -0.1661 0.9720
vn -0.1133 -0.1132 0.9871
vn -0.0043 -0.0043 1.0000
vn 0.1586 0.1587 0.9745
vn 0.2040 0.2040 0.9575
vn -0.0000 -0.6445 0.7646
vn -0.0000 -0.6455 0.7637
vn 1.0000 0.0000 -0.0000
vn -0.6470 -0.0000 0.7624
vn -0.6470 -0.0000 0.7625
vn 0.1369 -0.0000 0.9906
vn 0.3319 -0.0000 0.9433
vn -0.1698 -0.0000 0.9855
vn -0.3093 -0.0000 0.9510
vn -0.3302 -0.0000 0.9439
vn -0.2542 -0.0000 0.9671
vn -0.0696 -0.0000 0.9976
vn 0.2259 -0.0000 0.9741
vn 0.3920 -0.0000 0.9200
vn -0.6445 -0.0000 0.7646
vn -0.0000 -1.0000 0.0000
vn 0.0000 -1.0000 0.0000
vn 0.7073 -0.7069 -0.0000
vn 0.0006 -1.0000 -0.0000
# 131 vertex normals

vt 0.0000 0.0000 0.0000
vt 0.5719 0.0000 0.0000
vt 0.5719 1.0000 0.0000
vt 0.0000 1.0000 0.0000
vt 0.7958 0.0000 0.0000
vt 0.7958 1.0000 0.0000
# 6 texture coords

o Frame
g Frame
s 1
f 1/1/1 2/1/1 3/1/1 
f 3/1/1 4/1/1 1/1/1 
s 2
f 5/1/2 6/1/3 2/1/2 
f 2/1/2 1/1/2 5/1/2 
s 1
f 7/1/4 8/1/5 6/1/6 
f 6/1/6 5/1/7 7/1/4 
s 2
f 9/1/8 10/1/9 8/1/10 
f 8/1/10 7/1/11 9/1/8 
s 1
f 11/1/12 12/1/13 10/1/14 
f 10/1/14 9/1/15 11/1/12 
f 12/1/13 11/1/12 13/1/16 
f 13/1/16 14/1/17 12/1/13 
f 15/1/18 14/1/17 13/1/16 
f 13/1/16 16/1/19 15/1/18 
f 17/1/20 18/1/21 15/1/18 
f 15/1/18 16/1/19 17/1/20 
f 17/1/20 19/1/22 20/1/23 
f 20/1/23 18/1/21 17/1/20 
f 21/1/24 20/1/23 19/1/22 
f 19/1/22 22/1/25 21/1/24 
f 23/1/26 24/1/27 21/1/24 
f 21/1/24 22/1/25 23/1/26 
f 25/1/28 26/1/29 24/1/27 
f 24/1/27 23/1/26 25/1/28 
s 2
f 25/1/30 27/1/30 28/1/31 
f 28/1/31 26/1/31 25/1/30 
s 4
f 3/1/32 28/1/32 27/1/33 
f 27/1/33 4/1/33 3/1/32 
s 8
f 1/1/34 4/1/34 29/1/34 
f 29/1/34 30/1/34 1/1/34 
f 9/1/35 7/1/35 31/1/36 
f 31/1/36 32/1/36 9/1/35 
s 1
f 9/1/15 32/1/37 33/1/38 
f 33/1/38 11/1/12 9/1/15 
f 34/1/39 13/1/16 11/1/12 
f 11/1/12 33/1/38 34/1/39 
f 16/1/19 13/1/16 34/1/39 
f 34/1/39 35/1/40 16/1/19 
f 16/1/19 35/1/40 36/1/41 
f 36/1/41 17/1/20 16/1/19 
f 37/1/42 19/1/22 17/1/20 
f 17/1/20 36/1/41 37/1/42 
f 22/1/25 19/1/22 37/1/42 
f 37/1/42 38/1/43 22/1/25 
f 22/1/25 38/1/43 39/1/44 
f 39/1/44 23/1/26 22/1/25 
f 39/1/44 40/1/45 25/1/28 
f 25/1/28 23/1/26 39/1/44 
s 8
f 41/1/46 27/1/47 25/1/47 
f 25/1/47 40/1/46 41/1/46 
s 4
f 4/1/33 27/1/33 41/1/32 
f 41/1/32 29/1/32 4/1/33 
s 1
f 42/1/48 43/1/48 30/1/48 
f 30/1/48 29/1/48 42/1/48 
s 2
f 43/1/2 44/1/49 45/1/2 
f 45/1/2 30/1/2 43/1/2 
s 1
f 46/1/50 31/1/50 45/1/50 
f 45/1/50 44/1/50 46/1/50 
s 2
f 46/1/51 47/1/51 32/1/51 
f 32/1/51 31/1/51 46/1/51 
s 1
f 48/1/52 33/1/38 32/1/37 
f 32/1/37 47/1/53 48/1/52 
f 48/1/52 49/1/54 34/1/39 
f 34/1/39 33/1/38 48/1/52 
f 50/1/55 35/1/40 34/1/39 
f 34/1/39 49/1/54 50/1/55 
f 36/1/41 35/1/40 50/1/55 
f 50/1/55 51/1/56 36/1/41 
f 52/1/57 37/1/42 36/1/41 
f 36/1/41 51/1/56 52/1/57 
f 38/1/43 37/1/42 52/1/57 
f 52/1/57 53/1/58 38/1/43 
f 39/1/44 38/1/43 53/1/58 
f 53/1/58 54/1/59 39/1/44 
f 40/1/45 39/1/44 54/1/59 
f 54/1/59 55/1/60 40/1/45 
s 2
f 41/1/61 40/1/61 55/1/61 
f 55/1/61 56/1/61 41/1/61 
s 4
f 29/1/32 41/1/32 56/1/32 
f 56/1/32 42/1/32 29/1/32 
s 8
f 20/1/62 21/1/62 24/1/62 
f 26/1/63 28/1/62 3/1/62 
f 3/1/62 2/1/62 6/1/63 
f 26/1/63 3/1/62 6/1/63 
f 24/1/62 26/1/63 6/1/63 
f 6/1/63 8/1/63 10/1/62 
f 6/1/63 10/1/62 12/1/62 
f 6/1/63 12/1/62 14/1/63 
f 24/1/62 6/1/63 14/1/63 
f 24/1/62 14/1/63 15/1/62 
f 20/1/62 24/1/62 15/1/62 
f 20/1/62 15/1/62 18/1/62 
f 46/1/62 44/1/62 43/1/62 
f 42/1/62 56/1/62 55/1/34 
f 42/1/62 55/1/34 54/1/62 
f 54/1/62 53/1/62 52/1/62 
f 54/1/62 52/1/62 51/1/62 
f 42/1/62 54/1/62 51/1/62 
f 43/1/62 42/1/62 51/1/62 
f 51/1/62 50/1/34 49/1/34 
f 49/1/34 48/1/34 47/1/62 
f 51/1/62 49/1/34 47/1/62 
f 43/1/62 51/1/62 47/1/62 
f 46/1/62 43/1/62 47/1/62 
s off
f 31/1/64 7/1/64 57/1/64 
f 57/1/62 45/1/62 31/1/62 
f 45/1/62 57/1/62 58/1/62 
f 58/1/65 59/1/65 45/1/65 
f 45/1/66 59/1/66 60/1/66 
f 60/1/66 61/1/66 45/1/66 
f 58/1/67 57/1/67 6/1/67 
f 6/1/68 62/1/68 58/1/68 
s 1
f 63/1/69 64/1/69 65/1/69 
f 65/1/69 66/1/70 63/1/69 
s 2
f 67/1/32 68/1/33 64/1/33 
f 64/1/33 63/1/32 67/1/32 
s 1
f 69/1/71 70/1/72 68/1/73 
f 68/1/73 67/1/50 69/1/71 
s 2
f 71/1/74 72/1/75 70/1/76 
f 70/1/76 69/1/77 71/1/74 
s 1
f 73/1/78 74/1/79 72/1/80 
f 72/1/80 71/1/81 73/1/78 
f 74/1/79 73/1/78 75/1/82 
f 75/1/82 76/1/83 74/1/79 
f 77/1/84 76/1/83 75/1/82 
f 75/1/82 78/1/85 77/1/84 
f 79/1/86 80/1/87 77/1/84 
f 77/1/84 78/1/85 79/1/86 
f 79/1/86 81/1/88 82/1/89 
f 82/1/89 80/1/87 79/1/86 
f 83/1/90 82/1/89 81/1/88 
f 81/1/88 84/1/91 83/1/90 
f 85/1/92 86/1/93 83/1/90 
f 83/1/90 84/1/91 85/1/92 
f 87/1/94 88/1/95 86/1/93 
f 86/1/93 85/1/92 87/1/94 
s 2
f 87/1/96 89/1/96 90/1/97 
f 90/1/97 88/1/97 87/1/96 
s 4
f 65/1/3 90/1/98 89/1/3 
f 89/1/3 66/1/3 65/1/3 
s 8
f 63/1/99 66/1/100 91/1/99 
f 91/1/99 92/1/99 63/1/99 
s 2
f 63/1/32 92/1/33 58/1/33 
f 58/1/33 67/1/32 63/1/32 
s 4
f 67/1/101 58/1/101 93/1/101 
f 93/1/101 69/1/101 67/1/101 
s 8
f 71/1/102 69/1/102 93/1/103 
f 93/1/103 94/1/103 71/1/102 
s 1
f 71/1/81 94/1/104 95/1/105 
f 95/1/105 73/1/78 71/1/81 
f 96/1/106 75/1/82 73/1/78 
f 73/1/78 95/1/105 96/1/106 
f 78/1/85 75/1/82 96/1/106 
f 96/1/106 97/1/107 78/1/85 
f 78/1/85 97/1/107 98/1/108 
f 98/1/108 79/1/86 78/1/85 
f 99/1/109 81/1/88 79/1/86 
f 79/1/86 98/1/108 99/1/109 
f 84/1/91 81/1/88 99/1/109 
f 99/1/109 100/1/110 84/1/91 
f 84/1/91 100/1/110 101/1/111 
f 101/1/111 85/1/92 84/1/91 
f 101/1/111 102/1/112 87/1/94 
f 87/1/94 85/1/92 101/1/111 
s 8
f 103/1/113 89/1/114 87/1/114 
f 87/1/114 102/1/113 103/1/113 
s 4
f 66/1/3 89/1/3 103/1/3 
f 103/1/3 91/1/3 66/1/3 
s 1
f 104/1/115 105/1/115 92/1/115 
f 92/1/115 91/1/115 104/1/115 
s 2
f 105/1/33 106/1/33 58/1/33 
f 58/1/33 92/1/33 105/1/33 
s 1
f 107/1/7 93/1/7 58/1/7 
f 58/1/7 106/1/7 107/1/7 
s 2
f 107/1/116 108/1/116 94/1/117 
f 94/1/117 93/1/117 107/1/116 
s 1
f 109/1/118 95/1/105 94/1/104 
f 94/1/104 108/1/119 109/1/118 
f 109/1/118 110/1/120 96/1/106 
f 96/1/106 95/1/105 109/1/118 
f 111/1/121 97/1/107 96/1/106 
f 96/1/106 110/1/120 111/1/121 
f 98/1/108 97/1/107 111/1/121 
f 111/1/121 112/1/122 98/1/108 
f 113/1/123 99/1/109 98/1/108 
f 98/1/108 112/1/122 113/1/123 
f 100/1/110 99/1/109 113/1/123 
f 113/1/123 114/1/124 100/1/110 
f 101/1/111 100/1/110 114/1/124 
f 114/1/124 115/1/125 101/1/111 
f 102/1/112 101/1/111 115/1/125 
f 115/1/125 116/1/126 102/1/112 
s 2
f 103/1/127 102/1/127 116/1/127 
f 116/1/127 117/1/127 103/1/127 
s 4
f 91/1/3 103/1/3 117/1/98 
f 117/1/98 104/1/98 91/1/3 
s 8
f 82/1/62 83/1/62 86/1/128 
f 88/1/129 90/1/62 65/1/128 
f 65/1/128 64/1/128 68/1/129 
f 88/1/129 65/1/128 68/1/129 
f 86/1/128 88/1/129 68/1/129 
f 68/1/129 70/1/129 72/1/128 
f 68/1/129 72/1/128 74/1/128 
f 68/1/129 74/1/128 76/1/129 
f 86/1/128 68/1/129 76/1/129 
f 86/1/128 76/1/129 77/1/62 
f 82/1/62 86/1/128 77/1/62 
f 82/1/62 77/1/62 80/1/62 
f 107/1/62 106/1/62 105/1/62 
f 104/1/62 117/1/62 116/1/34 
f 104/1/62 116/1/34 115/1/62 
f 115/1/62 114/1/62 113/1/62 
f 115/1/62 113/1/62 112/1/62 
f 104/1/62 115/1/62 112/1/62 
f 105/1/62 104/1/62 112/1/62 
f 112/1/62 111/1/34 110/1/34 
f 110/1/34 109/1/34 108/1/62 
f 112/1/62 110/1/34 108/1/62 
f 105/1/62 112/1/62 108/1/62 
f 107/1/62 105/1/62 108/1/62 
f 118/1/3 119/2/3 120/3/3 
f 120/3/3 121/4/3 118/1/3 
s 16
f 119/1/130 122/5/130 123/6/131 
f 123/6/131 120/4/131 119/1/130 
s 32
f 122/1/33 124/2/33 125/3/33 
f 125/3/33 123/4/33 122/1/33 
s 8
f 126/1/3 127/2/98 119/3/3 
f 119/3/3 118/4/3 126/1/3 
s 16
f 127/1/115 128/5/115 122/6/130 
f 122/6/130 119/4/130 127/1/115 
s 32
f 128/1/33 129/2/33 124/3/33 
f 124/3/33 122/4/33 128/1/33 
s 8
f 130/1/3 131/2/98 121/3/3 
f 121/3/3 120/4/3 130/1/3 
s 32
f 132/1/32 133/2/32 123/3/33 
f 123/3/33 125/4/33 132/1/32 
s 64
f 133/1/67 130/5/67 120/6/67 
f 120/6/67 123/4/48 133/1/67 
# 238 faces

