# 3ds Max Wavefront OBJ Exporter v0.97b - (c)2007 guruware
# File Created: 24.05.2019 22:36:11

#
# object Wall_Low_Poly
#

v  0.0000 2.4000 0.0500
v  0.0000 2.3896 0.0500
v  1.0000 2.3896 0.0500
v  1.0000 2.4000 0.0500
v  0.0000 2.3743 0.0296
v  1.0000 2.3743 0.0296
v  0.0000 2.3474 0.0237
v  1.0000 2.3474 0.0237
v  0.0000 2.3277 0.0095
v  1.0000 2.3277 0.0095
v  0.0000 2.3183 0.0094
v  1.0000 2.3183 0.0094
v  0.0000 2.3183 -0.0000
v  1.0000 2.3183 -0.0000
v  0.0000 0.0913 -0.0000
v  1.0000 0.0913 -0.0000
v  0.0000 0.0777 0.0100
v  1.0000 0.0777 0.0100
v  0.0000 0.0000 0.0100
v  1.0000 0.0000 0.0100
# 20 vertices

vn 0.0000 0.0000 1.0000
vn 0.0000 -0.4477 0.8942
vn 0.0000 -0.5411 0.8410
vn 0.0000 -0.4072 0.9133
vn 0.0000 -0.3113 0.9503
vn 0.0000 -0.3112 0.9503
vn 0.0000 -0.7104 0.7038
vn 0.0000 -1.0000 -0.0000
vn 0.0000 0.5923 0.8057
# 9 vertex normals

vt 0.0000 1.0014 0.0000
vt 0.0000 0.9961 0.0000
vt 1.0000 0.9961 0.0000
vt 1.0000 1.0014 0.0000
vt 0.0000 0.9883 0.0000
vt 1.0000 0.9883 0.0000
vt 0.0000 0.9746 0.0000
vt 1.0000 0.9746 0.0000
vt 0.0000 0.9646 0.0000
vt 1.0000 0.9646 0.0000
vt 0.0000 0.9594 0.0000
vt 1.0000 0.9595 0.0000
vt 0.0000 0.9546 0.0000
vt 1.0000 0.9550 0.0000
vt 0.0000 0.9500 0.0000
vt -0.0000 0.0500 0.0000
vt 1.0000 0.0500 0.0000
vt 1.0000 0.9500 0.0000
vt 1.0000 0.0470 0.0000
vt 0.0000 0.0470 0.0000
vt 0.0000 0.0401 0.0000
vt 1.0000 0.0401 0.0000
vt 0.0000 0.0007 0.0000
vt 1.0000 0.0007 0.0000
# 24 texture coords

g Wall_Low_Poly
f 1/1/1 2/2/2 3/3/2 
f 3/3/2 4/4/1 1/1/1 
f 2/2/2 5/5/3 6/6/3 
f 6/6/3 3/3/2 2/2/2 
f 5/5/3 7/7/4 8/8/4 
f 8/8/4 6/6/3 5/5/3 
f 7/7/4 9/9/5 10/10/6 
f 10/10/6 8/8/4 7/7/4 
f 9/9/5 11/11/7 12/12/7 
f 12/12/7 10/10/6 9/9/5 
f 11/11/7 13/13/8 14/14/8 
f 14/14/8 12/12/7 11/11/7 
f 13/15/1 15/16/1 16/17/1 
f 16/17/1 14/18/1 13/15/1 
f 16/19/9 15/20/9 17/21/9 
f 17/21/9 18/22/9 16/19/9 
f 19/23/1 20/24/1 18/22/1 
f 18/22/1 17/21/1 19/23/1 
# 18 faces

